<!DOCTYPE svg PUBLIC "-//W3C//DTD SVG 1.1//EN" "http://www.w3.org/Graphics/SVG/1.1/DTD/svg11.dtd">
<!-- Uploaded to: SVG Repo, www.svgrepo.com, Transformed by: SVG Repo Mixer Tools -->
<svg fill="#bc3453" version="1.1" id="Layer_1" xmlns="http://www.w3.org/2000/svg" xmlns:xlink="http://www.w3.org/1999/xlink" viewBox="0 0 24 24" xml:space="preserve" width="800px" height="800px" stroke="#bc3453" stroke-width="0.00024000000000000003">
<g id="SVGRepo_bgCarrier" stroke-width="0"/>
<g id="SVGRepo_iconCarrier"> <style type="text/css"> .st0{fill:none;} </style> <path d="M20,2H4C2.9,2,2,2.9,2,4v16c0,1.1,0.9,2,2,2h16c1.1,0,2-0.9,2-2V4C22,2.9,21.1,2,20,2z M8.1,18H5V9.4h3.1V18z M6.5,8.4 L6.5,8.4C5.6,8.4,5,7.8,5,7s0.6-1.4,1.6-1.4c0.9,0,1.5,0.6,1.5,1.4S7.5,8.4,6.5,8.4z M19,18h-3.1v-4.7c0-1.3-0.8-1.6-1.1-1.6 s-1.3,0.2-1.3,1.6c0,0.2,0,4.7,0,4.7h-3.1V9.4h3.1v1.2c0.4-0.7,1.2-1.2,2.7-1.2s2.7,1.2,2.7,3.9L19,18L19,18z"/> <rect class="st0" width="24" height="24"/> </g>
</svg>