<!DOCTYPE svg PUBLIC "-//W3C//DTD SVG 1.1//EN" "http://www.w3.org/Graphics/SVG/1.1/DTD/svg11.dtd">
<!-- Uploaded to: SVG Repo, www.svgrepo.com, Transformed by: SVG Repo Mixer Tools -->
<svg fill="#bc3453" width="800px" height="800px" viewBox="0 0 32 32" id="Camada_1" version="1.1" xml:space="preserve" xmlns="http://www.w3.org/2000/svg" xmlns:xlink="http://www.w3.org/1999/xlink">
<g id="SVGRepo_bgCarrier" stroke-width="0"/>
<g id="SVGRepo_iconCarrier">
<style type="text/css"> .st0{fill-rule:evenodd;clip-rule:evenodd;} </style>
<path class="st0" d="M4,6.8v5.2l7.2,6.1l3.7-3.1c-0.1,0-0.1-0.1-0.2-0.1L4.8,6.4C4.5,6.1,4,6.3,4,6.8z M9.9,19.6l-5.9-5v10.1 c0,1.1,0.9,2,2,2h15V12.4l-8.5,7.2C11.7,20.2,10.7,20.2,9.9,19.6z M23,10.3V9.9l4.2-3.5c0.3-0.3,0.8,0,0.8,0.4v17.9c0,1.1-0.9,2-2,2 h-3V10.5C23,10.5,23,10.4,23,10.3z"/>
</g>
</svg>