<svg width="512" height="512" viewBox="0 0 512 512" fill="none" xmlns="http://www.w3.org/2000/svg">
<path d="M512 256C512 397.385 397.385 512 256 512C114.615 512 0 397.385 0 256C0 114.615 114.615 0 256 0C397.385 0 512 114.615 512 256Z" fill="#F5F4F0"/>
<path d="M221.605 315.697L129.874 269.414V243.763L221.605 197.668V227.865L157.619 256.262L221.605 285.726V315.697Z" fill="#BE3455"/>
<path d="M229.542 335.093L262.679 174.457H281.966L248.457 335.093H229.542Z" fill="#BE3455"/>
<path d="M289.617 315.618V285.618L353.679 256.375L289.617 227.442V197.668L381.44 243.768V269.207L289.617 315.618Z" fill="#BE3455"/>
<path d="M256.161 448.677L75.0933 352.217V159.272L256.161 62.8068L437.24 159.277V352.203L256.161 448.677ZM93.463 342.422L256.161 429.102L418.87 342.422V169.062L256.161 82.3772L93.463 169.057V342.422Z" fill="#BE3455"/>
</svg>
