<svg xmlns="http://www.w3.org/2000/svg" xmlns:svgjs="http://svgjs.dev/svgjs" xmlns:xlink="http://www.w3.org/1999/xlink" width="2000" height="499" version="1.1" viewBox="0 0 2000 499"><g transform="matrix(1,0,0,1,-1.2120876625598385,0.2541867219953531)"><svg xmlns="http://www.w3.org/2000/svg" xmlns:xlink="http://www.w3.org/1999/xlink" width="2000" height="499" data-background-color="#f4f3ee" preserveAspectRatio="xMidYMid meet" viewBox="0 0 396 99"><g id="tight-bounds" transform="matrix(1,0,0,1,0.23999354145718144,-0.05042970853722295)"><svg width="395.52" height="99.101" viewBox="0 0 395.52 99.101"><g><svg width="395.52" height="99.101" viewBox="0 0 580.749 145.512"><g><rect id="o-0" width="9.495" height="105.817" x="150.877" y="19.847" fill="#be3455" fill-opacity="1" stroke="transparent" stroke-width="0" class="rect-o-0" data-fill-palette-color="primary" data-palette-color="#be3455" opacity="1" rx="1%"/></g><g transform="matrix(1,0,0,1,185.22899982854926,20.110494458529523)"><svg width="395.52" height="105.291" viewBox="0 0 395.52 105.291"><g><svg width="395.52" height="105.291" viewBox="0 0 395.52 105.291"><g><svg width="395.52" height="105.291" viewBox="0 0 395.52 105.291"><g transform="matrix(1,0,0,1,0,0)"><svg width="395.52" height="105.291" data-palette-color="#be3455" viewBox="2.75 -36.15 138.04 36.75"><g id="text-0" class="undefined-text-0" data-fill-palette-color="primary"><path fill="#be3455" d="M2.75 0L2.75-26.3 7.75-26.3 8.45-22.45 8.75-22.45Q9.4-24.45 10.45-25.68 11.5-26.9 13.3-26.9L13.3-26.9Q14.75-26.9 15.8-26.5L15.8-26.5 15.8-20.7 13.65-20.7Q11.45-20.7 10.1-19.3 8.75-17.9 8.75-14.65L8.75-14.65 8.75 0 2.75 0ZM22.4 0L16-26.3 22-26.3 24.5-15.5Q25.25-12.15 25.55-7.25L25.55-7.25 25.75-7.25Q26.15-11.9 26.85-15.45L26.85-15.45 29.1-26.3 35.1-26.3 37.35-15.4Q37.85-13 38.45-7.25L38.45-7.25 38.65-7.25Q39.4-12.6 39.95-15.4L39.95-15.4 42.25-26.3 47.8-26.3 41.45 0 35.4 0 32.8-12.55Q32.3-15.05 32.05-19.05L32.05-19.05 31.75-19.05Q31.5-15.15 31-12.6L31-12.6 28.45 0 22.4 0ZM48.1 0L55.7-13.6 48.7-26.3 55.5-26.3 59.4-18.65 59.65-18.65 63.55-26.3 70-26.3 62.9-13.75 70.4 0 63.65 0 59.2-8.7 58.95-8.7 54.5 0 48.1 0ZM81.14 0.6Q77.14 0.6 74.92-2.83 72.69-6.25 72.69-13.2L72.69-13.2Q72.69-20.05 74.92-23.48 77.14-26.9 80.84-26.9L80.84-26.9Q82.84-26.9 84.42-26.03 85.99-25.15 86.69-23.6L86.69-23.6 86.94-23.6 86.94-36.15 92.94-36.15 92.94 0 87.94 0 87.34-3.25 87.09-3.25Q86.14-1.35 84.59-0.38 83.04 0.6 81.14 0.6L81.14 0.6ZM82.94-4.85Q85.04-4.85 85.99-6.68 86.94-8.5 86.94-12.2L86.94-12.2 86.94-14Q86.94-17.7 85.99-19.58 85.04-21.45 82.94-21.45L82.94-21.45Q80.84-21.45 79.89-19.63 78.94-17.8 78.94-14.1L78.94-14.1 78.94-12.2Q78.94-8.5 79.89-6.68 80.84-4.85 82.94-4.85L82.94-4.85ZM102.99 0.6Q100.54 0.6 98.47-1.07 96.39-2.75 96.39-6.8L96.39-6.8Q96.39-11.8 99.79-13.9 103.19-16 109.44-16L109.44-16 109.44-18.75Q109.44-20.3 108.87-21.15 108.29-22 106.69-22L106.69-22Q105.04-22 104.29-21.18 103.54-20.35 103.54-19.25L103.54-19.25 103.54-18.5 97.69-18.5Q97.64-18.8 97.64-19.6L97.64-19.6Q97.64-22.9 100.07-24.9 102.49-26.9 106.54-26.9L106.54-26.9Q111.04-26.9 113.27-24.9 115.49-22.9 115.49-19.15L115.49-19.15 115.49-6.2Q115.49-5.3 115.89-4.88 116.29-4.45 116.89-4.45L116.89-4.45 118.09-4.45 118.09-0.2Q116.59 0.6 114.54 0.6L114.54 0.6Q112.79 0.6 111.57-0.33 110.34-1.25 109.89-2.85L109.89-2.85 109.64-2.85Q108.39-1.1 106.92-0.25 105.44 0.6 102.99 0.6L102.99 0.6ZM105.49-4.4Q107.49-4.4 108.47-6 109.44-7.6 109.44-10.15L109.44-10.15 109.44-11.65Q106.39-11.65 104.47-10.68 102.54-9.7 102.54-7.35L102.54-7.35Q102.54-5.95 103.27-5.18 103.99-4.4 105.49-4.4L105.49-4.4ZM121.24 0L121.24-26.3 126.24-26.3 126.84-23.05 127.14-23.05Q128.29-24.75 129.94-25.83 131.59-26.9 133.79-26.9L133.79-26.9Q137.04-26.9 138.91-24.88 140.79-22.85 140.79-18.45L140.79-18.45 140.79 0 134.79 0 134.79-16.8Q134.79-19.25 133.91-20.35 133.04-21.45 131.34-21.45L131.34-21.45Q129.59-21.45 128.41-19.93 127.24-18.4 127.24-16.2L127.24-16.2 127.24 0 121.24 0Z" data-fill-palette-color="primary"/></g></svg></g></svg></g></svg></g></svg></g><g><svg width="126.021" height="145.512" viewBox="0 0 126.021 145.512"><g><svg xmlns="http://www.w3.org/2000/svg" xmlns:xlink="http://www.w3.org/1999/xlink" id="icon-0" width="126.021" height="145.512" x="0" y="0" class="icon-icon-0" data-fill-palette-color="accent" enable-background="new 0 0 90 90" version="1.1" viewBox="9.465 3.969 71.07 82.062" xml:space="preserve"><polygon fill="#be3455" points="38.182 57.753 20.18 47.91 20.18 42.455 38.182 32.652 38.182 39.074 25.625 45.113 38.182 51.379" data-fill-palette-color="accent"/><polygon fill="#be3455" points="39.848 62.08 46.351 27.918 50.136 27.918 43.56 62.08" data-fill-palette-color="accent"/><polygon fill="#be3455" points="51.8 57.78 51.8 51.4 64.372 45.181 51.8 39.028 51.8 32.696 69.82 42.5 69.82 47.91" data-fill-palette-color="accent"/><path fill="#be3455" d="M44.999 86.031L9.465 65.517V24.484L44.999 3.969l35.536 20.516v41.029L44.999 86.031 44.999 86.031zM13.07 63.434l31.929 18.434L76.93 63.434V26.566L44.999 8.131 13.07 26.565V63.434L13.07 63.434z" data-fill-palette-color="accent"/></svg></g></svg></g></svg></g></svg><rect width="395.52" height="99.101" fill="none" stroke="none" visibility="hidden"/></g></svg></g></svg>